<svg xmlns="http://www.w3.org/2000/svg" viewBox="0 0 100 100">
  <defs>
    <linearGradient id="goldGradient" x1="0%" y1="0%" x2="100%" y2="100%">
      <stop offset="0%" style="stop-color:#FFD700;stop-opacity:1" />
      <stop offset="50%" style="stop-color:#FFA500;stop-opacity:1" />
      <stop offset="100%" style="stop-color:#FF8C00;stop-opacity:1" />
    </linearGradient>
  </defs>
  
  <!-- Compass rose background -->
  <circle cx="50" cy="50" r="45" fill="url(#goldGradient)"/>
  <circle cx="50" cy="50" r="40" fill="#2C1810" />
  
  <!-- M letters forming mountains -->
  <path d="M 20 65 L 30 35 L 40 55 L 50 35 L 60 55 L 70 35 L 80 65" 
        stroke="url(#goldGradient)" 
        stroke-width="4" 
        fill="none" 
        stroke-linejoin="round" 
        stroke-linecap="round"/>
  
  <!-- C as a crescent moon -->
  <path d="M 65 70 A 15 15 0 1 1 35 70 A 12 12 0 1 0 65 70" 
        fill="url(#goldGradient)" />
  
  <!-- Compass points -->
  <path d="M 50 10 L 55 20 L 50 15 L 45 20 Z" fill="#FFD700" opacity="0.8"/>
  <path d="M 90 50 L 80 55 L 85 50 L 80 45 Z" fill="#FFD700" opacity="0.8"/>
  <path d="M 50 90 L 45 80 L 50 85 L 55 80 Z" fill="#FFD700" opacity="0.8"/>
  <path d="M 10 50 L 20 45 L 15 50 L 20 55 Z" fill="#FFD700" opacity="0.8"/>
</svg>